<svg width="24" height="24" viewBox="0 0 24 24" fill="none" xmlns="http://www.w3.org/2000/svg">
<path d="M18.6562 10.6172H13.3828V5.34375C13.3828 4.69666 12.858 4.17188 12.2109 4.17188H11.0391C10.392 4.17188 9.86719 4.69666 9.86719 5.34375V10.6172H4.59375C3.94666 10.6172 3.42188 11.142 3.42188 11.7891V12.9609C3.42188 13.608 3.94666 14.1328 4.59375 14.1328H9.86719V19.4062C9.86719 20.0533 10.392 20.5781 11.0391 20.5781H12.2109C12.858 20.5781 13.3828 20.0533 13.3828 19.4062V14.1328H18.6562C19.3033 14.1328 19.8281 13.608 19.8281 12.9609V11.7891C19.8281 11.142 19.3033 10.6172 18.6562 10.6172Z" fill="#8886BE"/>
</svg>
