<svg width="32" height="32" viewBox="0 0 32 32" fill="none" xmlns="http://www.w3.org/2000/svg">
<g clip-path="url(#clip0_12_3545)">
<path d="M23.7864 21.4718L18.8146 16.5L23.7864 11.5282C24.3965 10.9181 24.3965 9.92853 23.7864 9.31845L22.6816 8.21359C22.0715 7.60351 21.0819 7.60351 20.4718 8.21359L15.5 13.1854L10.5282 8.21359C9.91807 7.60351 8.92853 7.60351 8.31845 8.21359L7.21359 9.31845C6.60351 9.92853 6.60351 10.9181 7.21359 11.5282L12.1854 16.5L7.21359 21.4718C6.60351 22.0819 6.60351 23.0715 7.21359 23.6816L8.31845 24.7864C8.92853 25.3965 9.91807 25.3965 10.5282 24.7864L15.5 19.8146L20.4718 24.7864C21.0819 25.3965 22.0715 25.3965 22.6816 24.7864L23.7864 23.6816C24.3965 23.0715 24.3965 22.0819 23.7864 21.4718Z" fill="#787C84"/>
</g>
<defs>
<clipPath id="clip0_12_3545">
<rect width="25" height="25" fill="white" transform="translate(3 4)"/>
</clipPath>
</defs>
</svg>
