<svg width="15" height="19" viewBox="0 0 15 19" fill="none" xmlns="http://www.w3.org/2000/svg">
<g clip-path="url(#clip0_81_97)">
<path d="M2.8125 0.125C1.51978 0.125 0.46875 1.17603 0.46875 2.46875V16.5312C0.46875 17.824 1.51978 18.875 2.8125 18.875H12.1875C13.4802 18.875 14.5312 17.824 14.5312 16.5312V5.98438H9.84375C9.19556 5.98438 8.67188 5.46069 8.67188 4.8125V0.125H2.8125ZM9.84375 0.125V4.8125H14.5312L9.84375 0.125ZM4.57031 11.8438H10.4297C10.752 11.8438 11.0156 12.1074 11.0156 12.4297C11.0156 12.752 10.752 13.0156 10.4297 13.0156H4.57031C4.24805 13.0156 3.98438 12.752 3.98438 12.4297C3.98438 12.1074 4.24805 11.8438 4.57031 11.8438ZM4.57031 14.1875H10.4297C10.752 14.1875 11.0156 14.4512 11.0156 14.7734C11.0156 15.0957 10.752 15.3594 10.4297 15.3594H4.57031C4.24805 15.3594 3.98438 15.0957 3.98438 14.7734C3.98438 14.4512 4.24805 14.1875 4.57031 14.1875Z" fill="#787C84"/>
</g>
<defs>
<clipPath id="clip0_81_97">
<rect width="14.0625" height="18.75" fill="white" transform="translate(0.46875 0.125)"/>
</clipPath>
</defs>
</svg>
