<svg width="15" height="19" viewBox="0 0 15 19" fill="none" xmlns="http://www.w3.org/2000/svg">
<path fill-rule="evenodd" clip-rule="evenodd" d="M0.46875 2.46875C0.46875 1.17603 1.51978 0.125 2.8125 0.125H8.67188V4.8125C8.67188 5.46069 9.19556 5.98438 9.84375 5.98438H14.5312V16.5312C14.5312 17.824 13.4802 18.875 12.1875 18.875H2.8125C1.51978 18.875 0.46875 17.824 0.46875 16.5312V2.46875ZM14.5312 4.8125H9.84375V0.125L14.5312 4.8125ZM10.4297 9.5H4.57031C4.24805 9.5 3.98438 9.76367 3.98438 10.0859C3.98438 10.4082 4.24805 10.6719 4.57031 10.6719H10.4297C10.752 10.6719 11.0156 10.4082 11.0156 10.0859C11.0156 9.76367 10.752 9.5 10.4297 9.5ZM10.4297 11.8438H4.57031C4.24805 11.8438 3.98438 12.1074 3.98438 12.4297C3.98438 12.752 4.24805 13.0156 4.57031 13.0156H10.4297C10.752 13.0156 11.0156 12.752 11.0156 12.4297C11.0156 12.1074 10.752 11.8438 10.4297 11.8438ZM10.4297 14.1875H4.57031C4.24805 14.1875 3.98438 14.4512 3.98438 14.7734C3.98438 15.0957 4.24805 15.3594 4.57031 15.3594H10.4297C10.752 15.3594 11.0156 15.0957 11.0156 14.7734C11.0156 14.4512 10.752 14.1875 10.4297 14.1875ZM4.57031 7.18143C4.24671 7.18143 3.98438 7.44376 3.98438 7.76736C3.98438 8.09097 4.24671 8.3533 4.57031 8.3533L10.4297 8.3533C10.7533 8.3533 11.0156 8.09097 11.0156 7.76737C11.0156 7.44376 10.7533 7.18143 10.4297 7.18143L4.57031 7.18143ZM3.98438 5.49686C3.98438 5.17325 4.24671 4.91092 4.57031 4.91092L7.65625 4.91092V6.08279L4.57031 6.08279C4.24671 6.08279 3.98438 5.82046 3.98438 5.49686ZM4.57031 2.56717C4.24671 2.56717 3.98438 2.8295 3.98438 3.15311C3.98438 3.47671 4.24671 3.73904 4.57031 3.73904L7.65625 3.73904V2.56717L4.57031 2.56717Z" fill="#787C84"/>
</svg>
