<svg width="20" height="20" viewBox="0 0 20 20" fill="none" xmlns="http://www.w3.org/2000/svg">
<g clip-path="url(#clip0_81_132)">
<path d="M10.1094 7.14404C11.6276 7.14404 12.856 8.37238 12.856 9.89062C12.856 11.4089 11.6276 12.6372 10.1094 12.6372C8.59113 12.6372 7.36279 11.4089 7.36279 9.89062C7.36279 8.37238 8.59113 7.14404 10.1094 7.14404ZM7.36279 3.17676C7.36279 4.69501 8.59113 5.92334 10.1094 5.92334C11.6276 5.92334 12.856 4.69501 12.856 3.17676C12.856 1.65851 11.6276 0.430176 10.1094 0.430176C8.59113 0.430176 7.36279 1.65851 7.36279 3.17676ZM7.36279 16.6045C7.36279 18.1227 8.59113 19.3511 10.1094 19.3511C11.6276 19.3511 12.856 18.1227 12.856 16.6045C12.856 15.0862 11.6276 13.8579 10.1094 13.8579C8.59113 13.8579 7.36279 15.0862 7.36279 16.6045Z" fill="#787C84"/>
</g>
<defs>
<clipPath id="clip0_81_132">
<rect width="19.5312" height="19.5312" fill="white" transform="translate(0.34375 0.125)"/>
</clipPath>
</defs>
</svg>
