<svg width="19" height="19" viewBox="0 0 20 21" fill="none" xmlns="http://www.w3.org/2000/svg">
<g clip-path="url(#clip0_81_56)">
<path d="M4.13425 8.46293C4.42798 7.63132 4.90482 6.84931 5.5762 6.18174C7.96039 3.79755 11.8247 3.79755 14.2089 6.18174L14.8612 6.83787H12.9424C12.2672 6.83787 11.7217 7.38337 11.7217 8.05857C11.7217 8.73377 12.2672 9.27927 12.9424 9.27927H17.8061H17.8214C18.4966 9.27927 19.0421 8.73377 19.0421 8.05857V3.17576C19.0421 2.50056 18.4966 1.95506 17.8214 1.95506C17.1462 1.95506 16.6007 2.50056 16.6007 3.17576V5.12888L15.9331 4.4575C12.5952 1.11964 7.186 1.11964 3.84814 4.4575C2.91736 5.38828 2.24597 6.4831 1.83398 7.65421C1.60892 8.29127 1.94461 8.98554 2.57785 9.21061C3.21109 9.43568 3.90918 9.09998 4.13425 8.46674V8.46293ZM1.61273 11.7703C1.422 11.8275 1.23889 11.9305 1.09012 12.0831C0.93753 12.2357 0.834534 12.4188 0.781128 12.6171C0.769684 12.6629 0.75824 12.7125 0.75061 12.7621C0.739166 12.8269 0.735352 12.8918 0.735352 12.9566V17.8242C0.735352 18.4994 1.28085 19.0449 1.95605 19.0449C2.63126 19.0449 3.17676 18.4994 3.17676 17.8242V15.8749L3.84814 16.5425C7.186 19.8765 12.5952 19.8765 15.9293 16.5425C16.8601 15.6117 17.5353 14.5169 17.9473 13.3496C18.1723 12.7125 17.8366 12.0182 17.2034 11.7932C16.5702 11.5681 15.8721 11.9038 15.647 12.537C15.3533 13.3686 14.8764 14.1506 14.205 14.8182C11.8209 17.2024 7.95657 17.2024 5.57239 14.8182L5.56857 14.8144L4.91626 14.1621H6.83887C7.51407 14.1621 8.05957 13.6166 8.05957 12.9414C8.05957 12.2662 7.51407 11.7207 6.83887 11.7207H1.97131C1.91028 11.7207 1.84924 11.7245 1.78821 11.7321C1.72717 11.7398 1.66995 11.7512 1.61273 11.7703Z" fill="#787C84"/>
</g>
<defs>
<clipPath id="clip0_81_56">
<rect width="19.5312" height="19.5312" fill="white" transform="translate(0.125 0.734375)"/>
</clipPath>
</defs>
</svg>
