<svg width="19" height="18" viewBox="0 0 19 18" fill="none" xmlns="http://www.w3.org/2000/svg">
<path d="M6.84746 6.29261L7.36756 6.21678L7.60005 5.7454L9.81408 1.2563C9.81413 1.2562 9.81418 1.2561 9.81423 1.25601C9.81424 1.25598 9.81425 1.25595 9.81427 1.25592C9.82716 1.22996 9.83804 1.22318 9.84296 1.22028C9.85157 1.21519 9.86716 1.20952 9.88857 1.2096C9.91012 1.20967 9.92732 1.21554 9.938 1.22188C9.94518 1.22614 9.95586 1.23383 9.96758 1.25729C9.96766 1.25745 9.96774 1.25761 9.96782 1.25777L12.1811 5.7454L12.4136 6.21678L12.9337 6.29261L17.8877 7.01486L17.8885 7.01496C17.9152 7.01885 17.925 7.02659 17.9301 7.03109C17.9384 7.03836 17.949 7.05216 17.9557 7.07276C17.9623 7.09335 17.9619 7.11082 17.9594 7.12171C17.9579 7.12852 17.9544 7.14092 17.9346 7.16025L17.9343 7.16052L14.3502 10.6531L13.9734 11.0202L14.0625 11.5386L14.9101 16.4716C14.9101 16.4716 14.9101 16.4717 14.9101 16.4717C14.915 16.5004 14.9101 16.5119 14.908 16.5168C14.9042 16.5257 14.8949 16.5394 14.8774 16.5521C14.8597 16.5648 14.8422 16.5701 14.8299 16.5713C14.8217 16.572 14.8096 16.572 14.7879 16.5606L14.7877 16.5605L10.3559 14.231L9.89059 13.9864L9.42532 14.231L4.99348 16.5605L4.99034 16.5622C4.96894 16.5735 4.95757 16.5733 4.95043 16.5726C4.93918 16.5716 4.92214 16.5666 4.90451 16.5539C4.88699 16.5412 4.87748 16.5273 4.87337 16.5178C4.87098 16.5123 4.86618 16.5003 4.87107 16.4717C4.87108 16.4717 4.87108 16.4716 4.87108 16.4716L5.71867 11.5386L5.80775 11.0202L5.43102 10.6531L1.8469 7.16052L1.84661 7.16025C1.82676 7.14092 1.82325 7.12852 1.82173 7.12171C1.81928 7.11082 1.81883 7.09335 1.82551 7.07276C1.83219 7.05216 1.8428 7.03836 1.85105 7.03109C1.85616 7.02659 1.86594 7.01885 1.89271 7.01496L1.89344 7.01486L6.84746 6.29261Z" stroke="#787C84" stroke-width="2"/>
</svg>
