<svg width="19" height="20" viewBox="0 0 19 20" fill="none" xmlns="http://www.w3.org/2000/svg">
<g clip-path="url(#clip0_81_114)">
<path d="M2.49371 12.7157C2.58629 12.7265 2.67952 12.7319 2.77276 12.7323L5.11763 12.7323L4.77644 16.3281C4.77676 17.1021 5.08394 17.8443 5.63089 18.3921C6.17771 18.9397 6.91944 19.2482 7.69346 19.2498C8.3901 19.257 9.0671 19.0181 9.60487 18.5753C10.1429 18.1324 10.5073 17.5139 10.6339 16.8288C10.7021 16.3181 10.8368 15.8187 11.0349 15.3432C11.4442 14.4054 12.1756 13.0921 13.5052 12.7112C13.8741 12.6559 14.2472 12.6326 14.6201 12.642C15.4971 12.642 16.496 12.7112 16.496 12.7112C17.1184 12.7087 17.7145 12.4596 18.1535 12.0185C18.5926 11.5775 18.839 10.9803 18.8386 10.3581L18.8386 2.84488C18.8386 2.22298 18.5915 1.62646 18.1518 1.1868C17.712 0.746967 17.1156 0.500002 16.4937 0.500002L3.63336 0.500001C3.05467 0.49951 2.49609 0.711817 2.0638 1.09635C1.6315 1.48089 1.35556 2.01102 1.28848 2.58577L0.429124 10.0894C0.352412 10.7119 0.527264 11.3392 0.914931 11.8322C1.30258 12.3251 1.8708 12.6433 2.49383 12.7156L2.49371 12.7157ZM14.5133 2.24838L16.4936 2.24838C16.6478 2.2523 16.7947 2.31528 16.9038 2.42437C17.0129 2.53347 17.0759 2.68035 17.0798 2.8346L17.0798 10.3487C17.0765 10.4987 17.0175 10.6419 16.914 10.7504C16.8104 10.8588 16.6701 10.9248 16.5206 10.9349C16.2522 10.9172 15.3985 10.868 14.6024 10.868L14.5144 10.868L14.5133 2.24838ZM2.19432 10.2842L3.04191 2.78058C3.05892 2.63615 3.12778 2.50301 3.23557 2.40552C3.34336 2.30804 3.48288 2.25308 3.62813 2.25063L12.7593 2.25063L12.7593 11.0753C10.649 11.8187 9.72389 13.9068 9.4144 14.6126L9.41424 14.6126C9.15434 15.2261 8.97541 15.8709 8.882 16.5308C8.82655 16.8057 8.67705 17.0529 8.45933 17.2298C8.24146 17.4068 7.96896 17.5023 7.68845 17.5004C7.39338 17.4966 7.1104 17.3816 6.89647 17.1783C6.68236 16.9752 6.55282 16.6987 6.53368 16.4042L6.85264 12.868L7.02487 10.9547L2.77855 10.9547C2.61907 10.9501 2.4681 10.8827 2.35836 10.7671C2.24844 10.6516 2.18874 10.4973 2.19234 10.338C2.19103 10.3204 2.19234 10.3029 2.19463 10.284L2.19432 10.2842Z" fill="#787C84"/>
</g>
<defs>
<clipPath id="clip0_81_114">
<rect width="18.75" height="18.75" fill="white" transform="matrix(-1 0 0 1 19 0.5)"/>
</clipPath>
</defs>
</svg>
